# xmcd
#
# Track frame offsets: 
#        150
#        16237
#        36867
#        61702
#        82000
#        102965
#        126842
#        145760
#        163042
#        179862
#        197932
#        214800
#
# Disc length: 3167 seconds
#
# Revision: 3
# Processed by: cddbd v1.5.2PL0 Copyright (c) Steve Scherf et al.
# Submitted via: ExactAudioCopyFreeDBPlugin 1.0
#
DISCID=ac0c5d0c
DTITLE=荻野目洋子 - KNOCK ON MY DOOR
DYEAR=1990
DGENRE=Pop
TTITLE0=待ちきれない瞳
TTITLE1=扉はミラクル
TTITLE2=KNOCK ON MY DOOR
TTITLE3=ANGEL EYES
TTITLE4=ギャラリー (FANTASY Mix)
TTITLE5=Yes, it's me
TTITLE6=Type:B
TTITLE7=JULIA
TTITLE8=BEAT GOES ON
TTITLE9=恋にアクセス
TTITLE10=きれいになりたい
TTITLE11=Birthday～エピローグ
EXTD=YEAR: 1990
EXTT0=
EXTT1=
EXTT2=
EXTT3=
EXTT4=
EXTT5=
EXTT6=
EXTT7=
EXTT8=
EXTT9=
EXTT10=
EXTT11=
PLAYORDER=
